<svg id="Capa_1" data-name="Capa 1" xmlns="http://www.w3.org/2000/svg" viewBox="0 0 108.75 96.84"><defs><style>.cls-1{fill:#1d1d1b;stroke:#fff;stroke-miterlimit:10;}</style></defs><path class="cls-1" d="M103,97.13V74.37L34,72.75V97.13s1.49,19.35,35.47,19.35S103,97.13,103,97.13Z" transform="translate(-18.79 -30.52)"/><polygon class="cls-1" points="107.21 48.06 56.29 80.08 0.91 41.53 7.96 37.1 56.92 71.18 100.8 43.59 107.21 48.06"/><polygon class="cls-1" points="107.85 39.15 100.8 43.59 56.92 71.18 7.96 37.1 1.54 32.63 52.46 0.6 107.85 39.15"/><polygon class="cls-1" points="107.85 39.15 107.21 48.06 56.29 80.08 0.91 41.53 1.54 32.63 7.96 37.1 56.92 71.18 100.8 43.59 107.85 39.15"/><path class="cls-1" d="M102.57,69.66c-12.32-9.62-24.09-6.93-29.36-6-2.64.48-4.77,2.51-4.46,5.29A4.82,4.82,0,0,0,73,73.18a8.13,8.13,0,0,0,3.09-.79C81.3,71,89.2,71,97,77.76c9,7.86,8.65,16.09,6.78,21.38-.35,1-1.41,2.45-1.13,4a4.73,4.73,0,0,0,2.39,3.34,5,5,0,0,0,7.07-2.8h0S118.9,82.41,102.57,69.66Z" transform="translate(-18.79 -30.52)"/><path class="cls-1" d="M102,105.11s1.36,3.82,4.43,3.73c3.67-.1,5.18-1.86,5.18-1.86a14,14,0,0,1-.27,10,59.93,59.93,0,0,1-5.29,9.46s-3.67-6.47-5-11.57A13.58,13.58,0,0,1,102,105.11Z" transform="translate(-18.79 -30.52)"/></svg>