<?xml version="1.0" encoding="utf-8"?>
<!-- Generator: Adobe Illustrator 24.3.0, SVG Export Plug-In . SVG Version: 6.00 Build 0)  -->
<svg version="1.1" id="Capa_1" xmlns="http://www.w3.org/2000/svg" xmlns:xlink="http://www.w3.org/1999/xlink" x="0px" y="0px"
	 viewBox="0 0 68.2 72.4" style="enable-background:new 0 0 68.2 72.4;" xml:space="preserve">
<style type="text/css">
	.st0{fill:#FFFFFF;}
</style>
<g transform="translate(145.000000, 253.000000)">
	<path class="st0" d="M-98.2-186.8c1.5,0,2.8,1.4,2.8,3.1c0,1.7-1.2,3.1-2.8,3.1h-36c-5.9,0-10.8-5-10.8-11.4v-49.6
		c0-6.3,4.9-11.4,10.8-11.4h36c1.5,0,2.8,1.4,2.8,3.1c0,1.7-1.2,3.1-2.8,3.1h-36c-3,0-5.3,2.4-5.3,5.2v49.6c0,2.8,2.3,5.2,5.3,5.2
		L-98.2-186.8L-98.2-186.8z M-87.4-213.9h-30.9c-1,0-1.9-1.4-1.9-3.1c0-1.7,0.8-3.1,1.9-3.1h30.9l-11.2-11.2c-1.2-1.2-1.2-3.2,0-4.4
		s3.2-1.2,4.4,0l16.5,16.5c1.2,1.2,1.2,3.2,0,4.4l-16.5,16.5c-1.2,1.2-3.2,1.2-4.4,0c-1.2-1.2-1.2-3.2,0-4.4L-87.4-213.9z"/>
</g>
</svg>
